<mxfile host="65bd71144e">
    <diagram id="BSdLijnzQ7H5qpdkndkU" name="Page-1">
        <mxGraphModel dx="415" dy="254" grid="1" gridSize="10" guides="1" tooltips="1" connect="1" arrows="1" fold="1" page="1" pageScale="1" pageWidth="850" pageHeight="1100" math="1" shadow="0">
            <root>
                <mxCell id="0"/>
                <mxCell id="1" parent="0"/>
                <mxCell id="xoHWInkhw5XuIkNbkZY9-1" value="&lt;p style=&quot;line-height: 0.5&quot;&gt;&lt;/p&gt;&lt;div&gt;&lt;span style=&quot;font-size: 10px ; color: rgb(0 , 127 , 255)&quot;&gt;`O(log n)`&lt;/span&gt;&lt;/div&gt;&lt;div&gt;&lt;span style=&quot;font-size: 10px ; color: rgb(0 , 127 , 255)&quot;&gt;&lt;br&gt;&lt;/span&gt;&lt;/div&gt;&lt;font&gt;&lt;font style=&quot;font-size: 10px&quot;&gt;&lt;div&gt;&lt;span&gt;Logarithm is a power that a number need to raise to get another number.&lt;/span&gt;&lt;/div&gt;&lt;/font&gt;&lt;span style=&quot;font-size: 10px&quot;&gt;&lt;div&gt;&lt;span&gt;`x^x = x`&lt;/span&gt;&lt;/div&gt;&lt;/span&gt;&lt;div&gt;&lt;br&gt;&lt;/div&gt;&lt;span style=&quot;font-size: 10px&quot;&gt;&lt;div&gt;&lt;span&gt;`?^(?) = 8`&amp;nbsp;&lt;/span&gt;&lt;span style=&quot;color: rgb(153 , 153 , 153)&quot;&gt;`-&amp;gt;`&amp;nbsp;&lt;/span&gt;&lt;span&gt;`2^(?) = 8`&amp;nbsp;&lt;/span&gt;&lt;font color=&quot;#999999&quot;&gt;`-&amp;gt;`&amp;nbsp;&lt;/font&gt;&lt;span&gt;`2^3 = 8`&lt;/span&gt;&lt;/div&gt;&lt;/span&gt;&lt;div&gt;&lt;br&gt;&lt;/div&gt;&lt;div style=&quot;font-size: 10px&quot;&gt;&lt;span&gt;`log_2 8 = 3`&lt;/span&gt;&lt;/div&gt;&lt;div style=&quot;font-size: 10px&quot;&gt;&lt;span&gt;&lt;br&gt;&lt;/span&gt;&lt;/div&gt;&lt;div&gt;&lt;span&gt;&lt;span style=&quot;font-size: 10px&quot;&gt;Log &lt;/span&gt;&lt;font style=&quot;font-size: 8px&quot; color=&quot;#b3b3b3&quot;&gt;base 2&lt;/font&gt;&lt;span style=&quot;font-size: 10px&quot;&gt; of 8 is 3&lt;/span&gt;&lt;/span&gt;&lt;/div&gt;&lt;/font&gt;&lt;p&gt;&lt;/p&gt;" style="rounded=0;whiteSpace=wrap;html=1;shadow=0;glass=0;sketch=0;align=center;strokeColor=#E6E6E6;" parent="1" vertex="1">
                    <mxGeometry x="40" y="40" width="240" height="160" as="geometry"/>
                </mxCell>
            </root>
        </mxGraphModel>
    </diagram>
</mxfile>